<svg width="16" height="19" viewBox="0 0 16 19" fill="none" xmlns="http://www.w3.org/2000/svg">
<path d="M8 2.58335L3.875 6.70835C3.05925 7.52418 2.50374 8.56358 2.2787 9.69512C2.05367 10.8267 2.16923 11.9995 2.61076 13.0654C3.05228 14.1313 3.79996 15.0423 4.75923 15.6832C5.71851 16.3242 6.8463 16.6663 8 16.6663C9.15369 16.6663 10.2815 16.3242 11.2408 15.6832C12.2 15.0423 12.9477 14.1313 13.3892 13.0654C13.8308 11.9995 13.9463 10.8267 13.7213 9.69512C13.4963 8.56358 12.9407 7.52418 12.125 6.70835L8 2.58335ZM8 0.226685L13.3033 5.53002C14.3522 6.57892 15.0665 7.91529 15.3559 9.37014C15.6453 10.825 15.4967 12.333 14.9291 13.7034C14.3614 15.0739 13.4001 16.2452 12.1668 17.0693C10.9334 17.8934 9.48335 18.3333 8 18.3333C6.51664 18.3333 5.0666 17.8934 3.83323 17.0693C2.59986 16.2452 1.63857 15.0739 1.07091 13.7034C0.503248 12.333 0.354718 10.825 0.644099 9.37014C0.933481 7.91529 1.64778 6.57892 2.69666 5.53002L8 0.226685Z" fill="#AEAEB3"/>
</svg>
